<svg xmlns="http://www.w3.org/2000/svg" xmlns:xlink="http://www.w3.org/1999/xlink" width="40" height="40" viewBox="0 0 40 40"><defs><clipPath id="a"><rect width="40" height="40" transform="translate(0 0)" fill="#424242" stroke="#707070" stroke-width="1"/></clipPath></defs><g clip-path="url(#a)"><g transform="translate(0 2.37)"><path d="M39.068,37.073h-.98V19.834a.587.587,0,0,0-1.174,0V37.073h-4.9a.587.587,0,1,0,0,1.174h6.81V38.5A1.524,1.524,0,0,1,37.3,40.017H2.7A1.523,1.523,0,0,1,1.174,38.5v-.248H29.515a.587.587,0,1,0,0-1.174H3.086V13.888a.775.775,0,0,1,.774-.774H23.092a.587.587,0,1,0,0-1.174H3.861a1.95,1.95,0,0,0-1.948,1.948V37.073H.932A.933.933,0,0,0,0,38.005v.49a2.7,2.7,0,0,0,2.7,2.7H37.3A2.7,2.7,0,0,0,40,38.5v-.49A.933.933,0,0,0,39.068,37.073Z" transform="translate(0 -5.931)" fill="#424242"/><path d="M24.9,16.459a.587.587,0,0,0,0-1.174H6.657a.587.587,0,0,0-.587.587V36.31a.587.587,0,0,0,.587.587h5.084a.587.587,0,1,0,0-1.174h-4.5V16.459Z" transform="translate(-1.811 -6.929)" fill="#424242"/><path d="M28.948,27.963v-3.88a1.934,1.934,0,0,0-1.932-1.932H23.335L22.253,21.8a.85.85,0,0,0-1.116.808v5.359A3.907,3.907,0,0,0,23.021,31.3v.648l-2.578,2.141a2.42,2.42,0,0,0-.876,1.867v1.694h-2.1a.587.587,0,0,0,0,1.174H40.187a.587.587,0,0,0,.587-.587V22.817a.587.587,0,1,0-1.174,0V37.652H30.5V35.958a2.42,2.42,0,0,0-.876-1.867l-2.578-2.141v-.638a3.907,3.907,0,0,0,1.9-3.35ZM23.058,23.3a.585.585,0,0,0,.183.029h3.776a.759.759,0,0,1,.758.758v1.181H22.311V23.05Zm-.747,3.142h5.463v1.525a2.732,2.732,0,0,1-5.463,0V26.437Zm7.017,9.521v1.694H20.741V35.958a1.249,1.249,0,0,1,.452-.964l2.2-1.831a2.01,2.01,0,0,0,3.272,0l2.2,1.831A1.249,1.249,0,0,1,29.328,35.958Zm-3.454-3.966a.839.839,0,0,1-1.679,0v-.218a3.883,3.883,0,0,0,1.679,0v.214Z" transform="translate(-5.034 -8.858)" fill="#424242"/><path d="M47.314,3.378H38.663a3.252,3.252,0,0,0-3.248,3.248v9.5a1,1,0,0,0,.659.946,1.019,1.019,0,0,0,.355.064,1,1,0,0,0,.762-.353l1.031-1.2h3.517a.587.587,0,1,0,0-1.174H37.951a.587.587,0,0,0-.445.2l-.917,1.069V6.625a2.076,2.076,0,0,1,2.074-2.074h8.652a2.076,2.076,0,0,1,2.074,2.074v5.7A2.076,2.076,0,0,1,47.314,14.4H44.239a.587.587,0,0,0,0,1.174h3.075a3.252,3.252,0,0,0,3.248-3.248v-5.7a3.252,3.252,0,0,0-3.248-3.248Z" transform="translate(-10.562 -3.378)" fill="#424242"/></g><text transform="translate(2 7)" fill="#3e4041" font-size="6" font-family="Barlow-Black, Barlow" font-weight="800"><tspan x="0" y="0">FREE</tspan></text></g></svg>