<svg xmlns="http://www.w3.org/2000/svg" xmlns:xlink="http://www.w3.org/1999/xlink" width="40" height="40" viewBox="0 0 40 40"><defs><clipPath id="a"><rect width="40" height="40" transform="translate(0 0)" fill="#fff" stroke="#707070" stroke-width="1"/></clipPath></defs><g clip-path="url(#a)"><g transform="translate(0.42 0.154)"><g transform="translate(0 0)"><path d="M31.868,13.269a3.3,3.3,0,0,0,3.3-3.3V8.654a3.3,3.3,0,0,0-6.593,0V9.972a3.3,3.3,0,0,0,3.3,3.3ZM29.89,8.654a1.978,1.978,0,0,1,3.956,0V9.972a1.978,1.978,0,1,1-3.956,0Z" transform="translate(1.757 -0.742)" fill="#424242"/><path d="M6.868,13.269a3.3,3.3,0,0,0,3.3-3.3V8.654a3.3,3.3,0,0,0-6.593,0V9.972A3.3,3.3,0,0,0,6.868,13.269ZM4.89,8.654a1.978,1.978,0,0,1,3.956,0V9.972a1.978,1.978,0,0,1-3.956,0Z" transform="translate(-0.934 -0.742)" fill="#424242"/><path d="M17.673,36.569V28.855a4.621,4.621,0,0,0-4.615-4.615H10.421V16.987a3.3,3.3,0,0,0-6.593,0V24.9A4.6,4.6,0,0,0,5.22,28.2H2.509V15.668H1.19V39.4H2.509v-9.89H8.443a1.319,1.319,0,0,1,1.319,1.319V39.4H11.08V30.833a2.61,2.61,0,0,0-.367-1.319H12.4v9.23a.659.659,0,0,0,.659.659h5.275a.659.659,0,0,0,.549-1.025Zm-3.956,1.516v-9.23a.659.659,0,0,0-.659-.659H8.443a3.3,3.3,0,0,1-3.3-3.3V16.987a1.978,1.978,0,0,1,3.956,0V24.9a.659.659,0,0,0,.659.659h3.3a3.3,3.3,0,0,1,3.3,3.3v7.912a.663.663,0,0,0,.111.366l.636.953Z" transform="translate(-1.19 0.155)" fill="#424242"/><path d="M37.316,28.2h-2.71A4.6,4.6,0,0,0,36,24.9V16.987a3.3,3.3,0,1,0-6.593,0v7.252H26.767a4.621,4.621,0,0,0-4.615,4.615v7.714L20.944,38.38a.659.659,0,0,0,.549,1.023h5.275a.659.659,0,0,0,.659-.659v-9.23h1.685a2.61,2.61,0,0,0-.367,1.319V39.4h1.319V30.833a1.319,1.319,0,0,1,1.319-1.319h5.934V39.4h1.319V15.668H37.316Zm-5.934,0H26.767a.659.659,0,0,0-.659.659v9.23H22.724l.636-.953a.663.663,0,0,0,.111-.366V28.855a3.3,3.3,0,0,1,3.3-3.3h3.3a.659.659,0,0,0,.659-.659V16.987a1.978,1.978,0,0,1,3.956,0V24.9a3.3,3.3,0,0,1-3.3,3.3Z" transform="translate(0.924 0.155)" fill="#424242"/><path d="M27.728,21.346H22.2l2.164-4.32a.659.659,0,0,0-.593-.954H17.179a.659.659,0,0,0-.59.365l-2.455,4.91H11.9v1.319h7.252V39.147h1.319V22.665h7.252Zm-7,0H15.609l1.978-3.956h5.119Z" transform="translate(-0.037 0.411)" fill="#424242"/><path d="M24.707,13.058a.651.651,0,0,0,.253-.05.659.659,0,0,0,.407-.609V10.421h.659a2.637,2.637,0,0,0,2.637-2.637V3.828A2.637,2.637,0,0,0,26.025,1.19H18.113a2.637,2.637,0,0,0-2.637,2.637h1.319a1.319,1.319,0,0,1,1.319-1.319h7.912a1.319,1.319,0,0,1,1.319,1.319V7.784A1.319,1.319,0,0,1,26.025,9.1H24.707a.659.659,0,0,0-.659.659v1.046L22.535,9.3l-.932.932,2.637,2.637A.659.659,0,0,0,24.707,13.058Z" transform="translate(0.347 -1.19)" fill="#424242"/><path d="M10.714,7.4v2.637a2.637,2.637,0,0,0,2.637,2.637h.659v1.978a.659.659,0,0,0,.407.609.651.651,0,0,0,.253.05.659.659,0,0,0,.466-.193l2.444-2.444h1.046a2.637,2.637,0,0,0,2.637-2.637V7.4a2.637,2.637,0,0,0-2.637-2.637H13.352A2.637,2.637,0,0,0,10.714,7.4Zm9.23,0v2.637a1.319,1.319,0,0,1-1.319,1.319H17.307a.659.659,0,0,0-.466.193L15.329,13.06V12.014a.659.659,0,0,0-.659-.659H13.352a1.319,1.319,0,0,1-1.319-1.319V7.4a1.319,1.319,0,0,1,1.319-1.319h5.275A1.319,1.319,0,0,1,19.945,7.4Z" transform="translate(-0.165 -0.806)" fill="#424242"/><rect width="1.319" height="1.319" transform="translate(13.186 7.252)" fill="#424242"/><rect width="2.637" height="1.319" transform="translate(15.824 7.252)" fill="#424242"/><rect width="2.637" height="1.319" transform="translate(21.098 2.637)" fill="#424242"/><rect width="1.319" height="1.319" transform="translate(25.054 2.637)" fill="#424242"/><rect width="3.956" height="1.319" transform="translate(22.417 5.275)" fill="#424242"/></g></g></g></svg>