<svg xmlns="http://www.w3.org/2000/svg" width="40" height="40" viewBox="0 0 40 40"><g transform="translate(-202 -1991)"><path d="M49.648,38.3A7.648,7.648,0,1,0,42,30.648,7.648,7.648,0,0,0,49.648,38.3Zm0-13.906a6.258,6.258,0,1,1-6.258,6.258,6.258,6.258,0,0,1,6.258-6.258Z" transform="translate(172.352 1974.764)" fill="#424242"/><path d="M1.637,9.647a1.96,1.96,0,0,0-.344,1.234,2.083,2.083,0,0,0,.615,1.352l.461.462a2.1,2.1,0,0,0,1.471.617,1.939,1.939,0,0,0,1.115-.346A2.032,2.032,0,0,0,6.973,14.6h.656a2.031,2.031,0,0,0,2.018-1.637,1.938,1.938,0,0,0,1.115.347,2.1,2.1,0,0,0,1.469-.616l.465-.465a2.033,2.033,0,0,0,.268-2.584A2.032,2.032,0,0,0,14.6,7.628V6.973a2.031,2.031,0,0,0-1.637-2.018A2.032,2.032,0,0,0,12.7,2.371l-.466-.465a2.094,2.094,0,0,0-1.469-.616,1.937,1.937,0,0,0-1.115.347A2.031,2.031,0,0,0,7.629,0H6.973A2.032,2.032,0,0,0,4.954,1.636,1.938,1.938,0,0,0,3.84,1.29a2.1,2.1,0,0,0-1.469.616l-.464.465A2.093,2.093,0,0,0,1.29,3.837a1.939,1.939,0,0,0,.347,1.118A2.031,2.031,0,0,0,0,6.973v.656A2.031,2.031,0,0,0,1.637,9.647ZM1.39,6.973a.623.623,0,0,1,.584-.657h.837A4.581,4.581,0,0,1,3.43,4.823l-.592-.592a.623.623,0,0,1,.052-.877l.464-.464A.694.694,0,0,1,3.84,2.68a.546.546,0,0,1,.391.158l.592.592a4.574,4.574,0,0,1,1.492-.618V1.974a.623.623,0,0,1,.658-.584h.656a.623.623,0,0,1,.657.584v.837a4.567,4.567,0,0,1,1.493.618l.592-.592a.546.546,0,0,1,.391-.158.692.692,0,0,1,.486.209l.464.464a.624.624,0,0,1,.051.877l-.591.592a4.585,4.585,0,0,1,.618,1.492h.836a.624.624,0,0,1,.584.657v.656a.624.624,0,0,1-.584.658H11.79a4.592,4.592,0,0,1-.618,1.493l.591.592a.624.624,0,0,1-.051.877l-.464.464a.694.694,0,0,1-.486.209.547.547,0,0,1-.391-.157l-.592-.593a4.561,4.561,0,0,1-1.493.62v.837a.624.624,0,0,1-.657.583H6.973a.624.624,0,0,1-.658-.583V11.79a4.568,4.568,0,0,1-1.492-.62l-.592.593a.548.548,0,0,1-.391.157.7.7,0,0,1-.487-.209l-.464-.464a.623.623,0,0,1-.052-.877l.592-.592a4.588,4.588,0,0,1-.619-1.493H1.974a.624.624,0,0,1-.584-.658Z" transform="translate(202 1991)" fill="#424242"/><path d="M39.375,75.014H33.75v-6.22c0-4.927-2.838-8.327-7.142-8.694a8.891,8.891,0,0,1-1.07,1.356h.284c3.994,0,6.678,2.949,6.678,7.338v6.22H30.973l.275-5.151v-.041a2.008,2.008,0,0,0-1.884-2.108H10.634A2.008,2.008,0,0,0,8.75,69.822l.277,5.192H7.5v-6.22c0-4.389,2.684-7.338,6.678-7.338h.284a8.891,8.891,0,0,1-1.07-1.356c-4.3.368-7.142,3.767-7.142,8.694v6.22H.625a.7.7,0,0,0,0,1.391H9.1L9.38,81.62a2.005,2.005,0,0,0,1.884,2.086H28.736A2.005,2.005,0,0,0,30.62,81.62L30.9,76.4h8.476a.7.7,0,0,0,0-1.391Zm-10,6.541V81.6a.681.681,0,0,1-.634.718H11.263a.681.681,0,0,1-.634-.718L10,69.8a.678.678,0,0,1,.634-.7H29.366a.678.678,0,0,1,.634.7Z" transform="translate(202 1947.294)" fill="#424242"/><path d="M15.129,18.258A3.129,3.129,0,1,0,12,15.129a3.129,3.129,0,0,0,3.129,3.129Zm0-4.867a1.738,1.738,0,1,1-1.738,1.738,1.738,1.738,0,0,1,1.738-1.738Z" transform="translate(194.172 1983.172)" fill="#424242"/><path d="M98.964,4.955A2.032,2.032,0,0,0,98.7,2.371l-.466-.465a2.094,2.094,0,0,0-1.469-.616,1.937,1.937,0,0,0-1.115.347A2.031,2.031,0,0,0,93.629,0h-.656a2.032,2.032,0,0,0-2.018,1.637A1.938,1.938,0,0,0,89.84,1.29a2.1,2.1,0,0,0-1.469.616l-.464.465a2.093,2.093,0,0,0-.616,1.466,1.939,1.939,0,0,0,.347,1.118A2.031,2.031,0,0,0,86,6.973v.656a2.031,2.031,0,0,0,1.638,2.018,1.96,1.96,0,0,0-.344,1.234,2.083,2.083,0,0,0,.615,1.352l.461.462a2.1,2.1,0,0,0,1.471.617,1.939,1.939,0,0,0,1.115-.346A2.032,2.032,0,0,0,92.973,14.6h.656a2.031,2.031,0,0,0,2.018-1.637,1.938,1.938,0,0,0,1.115.347,2.1,2.1,0,0,0,1.469-.616l.465-.465a2.033,2.033,0,0,0,.268-2.584A2.032,2.032,0,0,0,100.6,7.628V6.973A2.031,2.031,0,0,0,98.964,4.955Zm.247,2.674a.624.624,0,0,1-.584.658H97.79a4.592,4.592,0,0,1-.618,1.493l.591.592a.624.624,0,0,1-.051.877l-.464.464a.694.694,0,0,1-.486.209.547.547,0,0,1-.391-.157l-.592-.593a4.561,4.561,0,0,1-1.493.62v.837a.624.624,0,0,1-.657.583h-.656a.624.624,0,0,1-.658-.583V11.79a4.568,4.568,0,0,1-1.492-.62l-.592.593a.548.548,0,0,1-.391.157.7.7,0,0,1-.487-.209l-.464-.464a.623.623,0,0,1-.052-.877l.592-.592a4.588,4.588,0,0,1-.619-1.493h-.837a.624.624,0,0,1-.584-.658V6.973a.623.623,0,0,1,.584-.657h.837a4.581,4.581,0,0,1,.619-1.492l-.592-.592a.623.623,0,0,1,.052-.877l.464-.464a.694.694,0,0,1,.486-.209.546.546,0,0,1,.392.158l.592.592a4.574,4.574,0,0,1,1.492-.618V1.974a.623.623,0,0,1,.658-.584h.656a.623.623,0,0,1,.657.584v.837a4.567,4.567,0,0,1,1.493.618l.592-.592a.546.546,0,0,1,.391-.158.692.692,0,0,1,.486.209l.464.464a.624.624,0,0,1,.051.877l-.591.592a4.585,4.585,0,0,1,.618,1.492h.836a.624.624,0,0,1,.584.657Z" transform="translate(141.399 1991)" fill="#424242"/><path d="M101.129,12a3.129,3.129,0,1,0,3.129,3.129A3.129,3.129,0,0,0,101.129,12Zm0,4.867a1.738,1.738,0,1,1,1.738-1.738A1.738,1.738,0,0,1,101.129,16.867Z" transform="translate(133.57 1983.172)" fill="#424242"/><text transform="translate(217.662 2026.006)" fill="#424242" font-size="8" font-family="OCRAExtended, OCR A"><tspan x="0" y="0">Pb</tspan></text><path d="M7.77.25H7.207a1.306,1.306,0,0,1-.74-.259.593.593,0,0,1-.074.09A.567.567,0,0,1,5.984.25.567.567,0,0,1,5.575.081a.567.567,0,0,1-.169-.409V-4.863a.564.564,0,0,1,.173-.411.569.569,0,0,1,.405-.167.567.567,0,0,1,.409.169.567.567,0,0,1,.169.409v1.03a1.076,1.076,0,0,1,.605-.194h.6a1.115,1.115,0,0,1,.755.289l.311.268a1.082,1.082,0,0,1,.282.421,1.368,1.368,0,0,1,.1.507v1.328a1.291,1.291,0,0,1-.1.47,1.016,1.016,0,0,1-.243.385L8.6-.092a1.226,1.226,0,0,1-.389.239A1.163,1.163,0,0,1,7.77.25ZM6.063-1.037l.422.4a1.157,1.157,0,0,0,.723.389H7.77a.686.686,0,0,0,.248-.065.748.748,0,0,0,.234-.138l.287-.271a.539.539,0,0,0,.119-.2.8.8,0,0,0,.061-.288V-2.543a.871.871,0,0,0-.066-.322.594.594,0,0,0-.146-.229L8.2-3.361a.622.622,0,0,0-.427-.166h-.6a.634.634,0,0,0-.407.169l-.7.557V-4.863a.068.068,0,0,0-.022-.056.068.068,0,0,0-.056-.022.069.069,0,0,0-.055.024.065.065,0,0,0-.023.054V-.328a.068.068,0,0,0,.022.056.068.068,0,0,0,.056.022A.068.068,0,0,0,6.04-.272a.068.068,0,0,0,.022-.056ZM1.145.25A.579.579,0,0,1,.731.083.564.564,0,0,1,.559-.328V-5.441H3.137a1.189,1.189,0,0,1,.871.367,1.2,1.2,0,0,1,.364.875v1.23a1.194,1.194,0,0,1-.362.872,1.194,1.194,0,0,1-.872.362H1.723V-.328a.567.567,0,0,1-.169.409A.567.567,0,0,1,1.145.25ZM1.059-4.941V-.328a.065.065,0,0,0,.023.054.079.079,0,0,0,.063.024A.068.068,0,0,0,1.2-.272a.068.068,0,0,0,.022-.056V-2.234H3.137a.7.7,0,0,0,.519-.216.7.7,0,0,0,.216-.519V-4.2a.711.711,0,0,0-.218-.523.7.7,0,0,0-.516-.219ZM7.742-.414H7.207a.591.591,0,0,1-.4-.168L6.28-1.024a.593.593,0,0,1-.218-.464V-2.23a.629.629,0,0,1,.2-.491l0,0,.59-.5a.612.612,0,0,1,.412-.134h.453a.618.618,0,0,1,.4.147l.24.2a.546.546,0,0,1,.2.442v1.383a.513.513,0,0,1-.2.415L8.1-.545A.542.542,0,0,1,7.742-.414ZM6.591-2.348a.188.188,0,0,0-.029.117v.742a.1.1,0,0,0,.041.083l.536.453a.123.123,0,0,0,.068.038h.535a.042.042,0,0,0,.031-.009L8.05-1.17s0-.009,0-.022V-2.574c0-.021,0-.047-.013-.056l-.241-.2a.12.12,0,0,0-.082-.032H7.266a.176.176,0,0,0-.087.014ZM3.137-2.391H1.223V-4.777H3.137a.569.569,0,0,1,.405.167.564.564,0,0,1,.173.411v1.23a.564.564,0,0,1-.173.411A.569.569,0,0,1,3.137-2.391Zm-1.414-.5H3.137a.069.069,0,0,0,.056-.024.065.065,0,0,0,.023-.054V-4.2a.065.065,0,0,0-.023-.054.069.069,0,0,0-.055-.024H1.723Z" transform="translate(217.662 2026.006)" fill="#3e4041"/></g></svg>