<svg xmlns="http://www.w3.org/2000/svg" xmlns:xlink="http://www.w3.org/1999/xlink" width="40" height="40" viewBox="0 0 40 40"><defs><clipPath id="a"><rect width="40" height="40" transform="translate(0 0)" fill="#f78077" stroke="#707070" stroke-width="1"/></clipPath></defs><g clip-path="url(#a)"><g transform="translate(0 0)"><path d="M36.774,12.323H21.817a1.924,1.924,0,0,0-3.634,0H3.226A3.229,3.229,0,0,0,0,15.548V36.194a3.229,3.229,0,0,0,3.226,3.226h9.032V42h-1.29v1.29H29.032V42h-1.29V39.419h9.032A3.229,3.229,0,0,0,40,36.194V15.548A3.229,3.229,0,0,0,36.774,12.323ZM20,12.323a.645.645,0,1,1-.645.645A.645.645,0,0,1,20,12.323ZM26.452,42h-12.9V39.419h12.9ZM38.71,36.194a1.938,1.938,0,0,1-1.935,1.935H3.226A1.938,1.938,0,0,1,1.29,36.194v-.645H38.71Zm0-1.935H1.29V15.548a1.938,1.938,0,0,1,1.935-1.935H18.183a1.924,1.924,0,0,0,3.634,0H36.774a1.938,1.938,0,0,1,1.935,1.935Z" transform="translate(0 -3.29)" fill="#424242"/><path d="M3.677,34.613H38.516V16.548H3.677Zm1.29-16.774H37.226V33.323H4.968Z" transform="translate(-1.097 -4.935)" fill="#424242"/><rect width="1.29" height="1.29" transform="translate(5.161 14.194)" fill="#424242"/><rect width="1.29" height="1.29" transform="translate(7.742 14.194)" fill="#424242"/><rect width="1.29" height="1.29" transform="translate(10.323 14.194)" fill="#424242"/><path d="M28.73,25.557a3.226,3.226,0,1,0-4.848,0,3.877,3.877,0,0,0-2.737,3.7v3.871H31.468V29.258A3.877,3.877,0,0,0,28.73,25.557Zm-2.424-4.041a1.935,1.935,0,1,1-1.935,1.935A1.938,1.938,0,0,1,26.306,21.516Zm3.871,10.323h-1.29V28.613H27.6v3.226H25.016V28.613h-1.29v3.226h-1.29V29.258a2.583,2.583,0,0,1,2.581-2.581H27.6a2.583,2.583,0,0,1,2.581,2.581Z" transform="translate(-6.306 -6.032)" fill="#424242"/><path d="M25.156,1.29a8.407,8.407,0,0,1,6.819,3.517l1.05-.751a9.66,9.66,0,0,0-15.737,0l1.05.751A8.407,8.407,0,0,1,25.156,1.29Z" transform="translate(-5.156)" fill="#424242"/><path d="M30.768,7.4l1.05-.751a7.085,7.085,0,0,0-11.541,0l1.05.751a5.794,5.794,0,0,1,9.441,0Z" transform="translate(-6.048 -1.097)" fill="#424242"/><path d="M23.268,9.248l1.05.751a3.216,3.216,0,0,1,5.244,0l1.05-.751a4.507,4.507,0,0,0-7.343,0Z" transform="translate(-6.94 -2.194)" fill="#424242"/><rect width="1.29" height="1.29" transform="translate(5.161 16.774)" fill="#424242"/><rect width="1.29" height="1.29" transform="translate(7.742 16.774)" fill="#424242"/><rect width="1.29" height="1.29" transform="translate(5.161 19.355)" fill="#424242"/><rect width="1.29" height="1.29" transform="translate(33.548 25.161)" fill="#424242"/><rect width="1.29" height="1.29" transform="translate(30.968 25.161)" fill="#424242"/><rect width="1.29" height="1.29" transform="translate(28.387 25.161)" fill="#424242"/><rect width="1.29" height="1.29" transform="translate(33.548 22.581)" fill="#424242"/><rect width="1.29" height="1.29" transform="translate(30.968 22.581)" fill="#424242"/><rect width="1.29" height="1.29" transform="translate(33.548 20)" fill="#424242"/></g><text transform="translate(1 7)" fill="#3e4041" font-size="5" font-family="Barlow-Black, Barlow" font-weight="800"><tspan x="0" y="0">LIVE</tspan></text></g></svg>