<svg xmlns="http://www.w3.org/2000/svg" width="40" height="40" viewBox="0 0 40 40"><g transform="translate(-1061 -2734)"><path d="M89.861,85.508a.631.631,0,0,1-.576-.377l-.972-2.23-3.46,1.309A.629.629,0,0,1,84,83.621V66.634a.629.629,0,0,1,1.057-.459L97.64,77.914a.629.629,0,0,1-.176,1.038l-3.4,1.475.944,2.2a.629.629,0,0,1-.315.827l-4.59,1.994a.645.645,0,0,1-.245.057Zm-1.208-4.039a.629.629,0,0,1,.576.377l.944,2.2,3.435-1.494-.944-2.2a.629.629,0,0,1,.315-.827l3.1-1.346-10.815-10.1V82.709l3.171-1.2A.61.61,0,0,1,88.653,81.469Z" transform="translate(1003.158 2688.491)" fill="#424242"/><path d="M93.887,15.775a1.887,1.887,0,1,1,1.887-1.887A1.887,1.887,0,0,1,93.887,15.775Zm0-2.517a.629.629,0,1,0,.629.629A.629.629,0,0,0,93.887,13.258Z" transform="translate(997.73 2725.775)" fill="#424242"/><path d="M24.358,34.976H3.772a2.523,2.523,0,0,1-2.523-2.523V11.242H34.976V25.92a.625.625,0,1,0,1.249,0V3.772A3.776,3.776,0,0,0,32.452,0H3.772A3.776,3.776,0,0,0,0,3.772v28.68a3.776,3.776,0,0,0,3.772,3.772H24.358a.625.625,0,0,0,0-1.249ZM3.772,1.249h28.68a2.523,2.523,0,0,1,2.523,2.523V9.993H1.249V3.772A2.523,2.523,0,0,1,3.772,1.249Z" transform="translate(1061 2734)" fill="#424242"/><path d="M77.887,15.775A1.887,1.887,0,1,0,76,13.887,1.887,1.887,0,0,0,77.887,15.775Zm0-2.517a.629.629,0,1,1-.629.629A.629.629,0,0,1,77.887,13.258Z" transform="translate(1008.734 2725.775)" fill="#424242"/><path d="M61.887,15.775A1.887,1.887,0,1,0,60,13.887,1.887,1.887,0,0,0,61.887,15.775Zm0-2.517a.629.629,0,1,1-.629.629A.629.629,0,0,1,61.887,13.258Z" transform="translate(1019.737 2725.775)" fill="#424242"/><path d="M19.956,50.066h8.808a.629.629,0,0,0,.629-.629V40.629A.629.629,0,0,0,28.764,40H19.956a.629.629,0,0,0-.629.629v1.887h-5.1a3.146,3.146,0,1,0,0,1.258h1.321v10.7a.629.629,0,0,0,.629.629h3.146v5.662a.629.629,0,0,0,.629.629h8.808a.629.629,0,0,0,.629-.629V51.954a.629.629,0,0,0-.629-.629H19.956a.629.629,0,0,0-.629.629v1.887H16.81V43.775h2.517v5.662A.629.629,0,0,0,19.956,50.066Zm-8.808-5.033a1.887,1.887,0,1,1,1.887-1.887,1.887,1.887,0,0,1-1.887,1.887Zm9.437,7.55h7.55v7.55h-7.55Zm0-11.325h7.55v7.55h-7.55Z" transform="translate(1055.515 2706.406)" fill="#424242"/><path d="M53.69,53.562a.629.629,0,0,0,.887,0L56.842,51.3a.629.629,0,0,0-.887-.887l-1.821,1.818-1.066-1.063a.632.632,0,1,0-.887.9Z" transform="translate(1025.24 2699.437)" fill="#424242"/></g></svg>