<svg xmlns="http://www.w3.org/2000/svg" xmlns:xlink="http://www.w3.org/1999/xlink" width="40" height="40" viewBox="0 0 40 40"><defs><clipPath id="a"><rect width="40" height="40" transform="translate(0 0)" fill="#858585" stroke="#707070" stroke-width="1"/></clipPath></defs><g clip-path="url(#a)"><g transform="translate(0 0)"><path d="M6.435,46.886H28.371v1.29H6.435Z" transform="translate(-2.564 -14.629)" fill="#424242"/><path d="M6.435,43.209H28.371V44.5H6.435Z" transform="translate(-2.564 -13.532)" fill="#424242"/><path d="M6.435,39.532H23.209v1.29H6.435Z" transform="translate(-2.564 -12.435)" fill="#424242"/><path d="M6.435,35.854H23.209v1.29H6.435Z" transform="translate(-2.564 -11.339)" fill="#424242"/><path d="M20.871,14.919h5.161a.645.645,0,0,0,.645-.645V11.693a3.225,3.225,0,0,0-1.424-2.674,2.581,2.581,0,1,0-3.6,0,3.225,3.225,0,0,0-1.424,2.674v2.581A.645.645,0,0,0,20.871,14.919Zm1.29-7.742a1.29,1.29,0,1,1,1.29,1.29A1.292,1.292,0,0,1,22.161,7.177Zm-.645,4.516a1.935,1.935,0,1,1,3.871,0v1.935H21.516Z" transform="translate(-6.677 -2.016)" fill="#424242"/><path d="M16.548,21.145H28.161v1.29H16.548Z" transform="translate(-5.581 -6.952)" fill="#424242"/><path d="M16.548,24.822H28.161v1.29H16.548Z" transform="translate(-5.581 -8.048)" fill="#424242"/><path d="M49.483,18.306a4.516,4.516,0,1,0-4.516,4.516A4.521,4.521,0,0,0,49.483,18.306Zm-4.516,3.226a3.226,3.226,0,1,1,3.226-3.226A3.229,3.229,0,0,1,44.967,21.532Z" transform="translate(-12.709 -4.758)" fill="#424242"/><path d="M37.107,20.836a3.228,3.228,0,0,0,2.521-3.143,3.063,3.063,0,0,0-.062-.609,3.208,3.208,0,0,0,0-5.233,3.063,3.063,0,0,0,.062-.609A3.229,3.229,0,0,0,36.4,8.016a3.047,3.047,0,0,0-.608.062,3.191,3.191,0,0,0-2.617-1.352V4.145a.645.645,0,0,0-.645-.645H30.6V1.564a.645.645,0,0,0-.645-.645H8.016a.642.642,0,0,0-.456.189L1.108,7.56a.643.643,0,0,0-.189.456V37.693a.645.645,0,0,0,.645.645H3.5v1.935a.645.645,0,0,0,.645.645H32.532a.645.645,0,0,0,.645-.645V22.209c.065,0,.129-.008.194-.012l1.783,4.755a.645.645,0,0,0,.53.414.7.7,0,0,0,.074,0,.644.644,0,0,0,.537-.287l1.051-1.575,2.8.56a.645.645,0,0,0,.613-1.057ZM31.887,4.79V7A3.192,3.192,0,0,0,30.6,8.032V4.79ZM7.371,3.122V7.371H3.122ZM2.21,8.661H8.016a.645.645,0,0,0,.645-.645V2.21H29.306V8.081a3.231,3.231,0,0,0-2.581,3.161,3.063,3.063,0,0,0,.062.609,3.208,3.208,0,0,0,0,5.233,3.063,3.063,0,0,0-.062.609,3.228,3.228,0,0,0,2.521,3.143l-3.652,4.174a.645.645,0,0,0,.613,1.057l2.8-.56.3.446V37.048H2.21ZM30.434,25.32l-.592-.888a.639.639,0,0,0-.663-.275l-1.362.272,2.926-3.344a3.184,3.184,0,0,0,.986.779ZM4.79,39.628v-1.29H29.951a.645.645,0,0,0,.645-.645V27.371a.562.562,0,0,0,.074,0,.645.645,0,0,0,.53-.414l.686-1.829V39.628ZM31.441,19.82a.644.644,0,0,0-.809-.323,1.923,1.923,0,0,1-2.617-1.8,1.9,1.9,0,0,1,.132-.681.645.645,0,0,0-.323-.808,1.92,1.92,0,0,1,0-3.472.645.645,0,0,0,.323-.808,1.9,1.9,0,0,1-.132-.682,1.923,1.923,0,0,1,2.616-1.8.645.645,0,0,0,.81-.323,1.919,1.919,0,0,1,3.471,0,.646.646,0,0,0,.81.323,1.923,1.923,0,0,1,2.616,1.8,1.9,1.9,0,0,1-.132.681.645.645,0,0,0,.323.808,1.92,1.92,0,0,1,0,3.472.645.645,0,0,0-.323.808,1.9,1.9,0,0,1,.132.682,1.923,1.923,0,0,1-2.616,1.8.647.647,0,0,0-.81.323,1.919,1.919,0,0,1-3.471,0Zm5.733,4.338a.643.643,0,0,0-.663.275l-.592.888-1.3-3.455a3.184,3.184,0,0,0,.986-.779l2.926,3.344Z" transform="translate(-0.919 -0.919)" fill="#424242"/><path d="M47.3,16.893l-2.13,2.663-.781-.781-.912.912,1.29,1.29a.641.641,0,0,0,.456.19h.036a.648.648,0,0,0,.468-.241L48.31,17.7Z" transform="translate(-13.612 -5.683)" fill="#424242"/><path d="M7.081,32.37h6.452a.645.645,0,0,0,.645-.645V29.145a.645.645,0,0,0-.645-.645H7.081a.645.645,0,0,0-.645.645v2.581A.645.645,0,0,0,7.081,32.37Zm.645-2.581h5.161v1.29H7.726Z" transform="translate(-2.564 -9.145)" fill="#424242"/></g></g></svg>